<?xml version="1.0" encoding="UTF-8" standalone="no"?>
<svg
   width="600"
   height="400"
   version="1.1"
   id="svg1"
   sodipodi:docname="pdfequps.svg"
   inkscape:export-filename="pdfequps.png"
   inkscape:export-xdpi="96"
   inkscape:export-ydpi="96"
   inkscape:version="1.3 (0e150ed6c4, 2023-07-21)"
   xmlns:inkscape="http://www.inkscape.org/namespaces/inkscape"
   xmlns:sodipodi="http://sodipodi.sourceforge.net/DTD/sodipodi-0.dtd"
   xmlns="http://www.w3.org/2000/svg"
   xmlns:svg="http://www.w3.org/2000/svg">
   <defs
      id="defs1" />
   <sodipodi:namedview
      id="namedview1"
      pagecolor="#ffffff"
      bordercolor="#000000"
      borderopacity="0.25"
      inkscape:showpageshadow="2"
      inkscape:pageopacity="0.0"
      inkscape:pagecheckerboard="0"
      inkscape:deskcolor="#d1d1d1"
      inkscape:zoom="1.8475"
      inkscape:cx="299.86468"
      inkscape:cy="200"
      inkscape:window-width="1920"
      inkscape:window-height="974"
      inkscape:window-x="-11"
      inkscape:window-y="-11"
      inkscape:window-maximized="1"
      inkscape:current-layer="svg1" />
   <style
      id="style1">&#10; @import
      url('https://fonts.googleapis.com/css2?family=Raleway:wght@200&amp;display=swap');&#10;&#10;
      /* Apply the font to specific SVG text elements */&#10; text {&#10; font-family: 'Raleway',
      sans-serif;&#10; font-weight: 200;&#10; }&#10; </style>
   <g
      class="layer"
      id="g1">
      <title
         id="title1">Layer 1</title>
      <rect
         fill="#fc271c"
         height="400"
         id="svg_1"
         rx="20"
         width="600"
         transform="matrix(1 0 0 1 0 0)" />
      <g
         fill="#fff"
         id="svg_2"
         transform="matrix(0.0350887 0 0 -0.0347087 61.2943 266.672)">
         <path
            d="m 5223.1723,7032.81 c -160,-31 -299,-173 -330,-339 -14,-73 -14,-4347 0,-4420 32,-170 170,-308 339,-340 74,-14 3069,-14 3141,0 170,32 308,170 340,339 6,35 10,683 10,1833 0,1563 -2,1784 -15,1812 -20,42 -1082,1102 -1118,1115 -35,14 -2300,13 -2367,0 z m 2220,-533 c 0,-183 5,-358 10,-387 32,-169 170,-307 340,-339 29,-5 203,-10 386,-10 h 334 v -1705 c 0,-1218 -3,-1719 -11,-1756 -16,-74 -84,-142 -158,-158 -74,-16 -3008,-16 -3082,0 -74,16 -142,84 -158,158 -16,74 -16,4288 0,4362 15,69 85,143 150,157 27,6 458,10 1117,11 l 1072,1 z m 673,-524 c -296,-3 -328,3 -393,67 -64,64 -70,96 -70,394 v 242 l 350,-350 350,-350 z"
            id="svg_3" />
         <path
            d="m 6589.4068,5319.81 c -126,-47 -190,-152 -207,-341 -18,-188 37,-347 204,-587 l 50,-70 -63,-192 c -80,-243 -160,-458 -174,-472 -7,-6 -131,-69 -277,-139 -315,-151 -427,-215 -498,-285 -64,-63 -92,-115 -99,-186 -20,-188 240,-330 439,-241 190,85 390,306 561,618 l 36,65 123,42 c 143,48 301,90 480,128 l 127,27 68,-50 c 112,-82 183,-128 270,-173 76,-40 89,-44 152,-42 90,1 138,15 197,55 60,40 95,106 102,192 11,142 -59,228 -216,265 -75,17 -288,15 -402,-4 -52,-9 -100,-16 -107,-16 -32,0 -304,250 -429,396 l -51,59 43,140 c 83,265 97,335 91,465 -7,178 -51,275 -147,329 -35,20 -61,25 -139,28 -66,2 -108,-1 -134,-11 z m 185,-226 c 24,-33 35,-165 19,-240 -6,-30 -26,-104 -43,-163 -36,-123 -34,-123 -90,-12 -51,99 -68,161 -68,244 0,93 14,146 46,178 34,34 108,30 136,-7 z m 162,-1104 136,-133 -61,-12 c -34,-7 -123,-30 -198,-51 -75,-21 -137,-37 -138,-36 -3,3 118,366 122,366 2,0 64,-60 139,-134 z m 888,-266 c 38,-11 51,-29 41,-57 -9,-26 -23,-33 -67,-33 -38,0 -123,38 -176,80 l -25,20 h 95 c 52,0 111,-5 132,-10 z m -1618,-412 c -24,-42 -115,-146 -178,-205 -113,-106 -182,-132 -262,-98 l -35,15 17,30 c 10,16 38,44 63,62 43,31 378,207 394,208 5,0 5,-6 1,-12 z"
            id="svg_4" />
      </g>
      <text
         fill="#ffffff"
         font-family="Raleway, sans-serif"
         font-weight="100"
         font-size="96px"
         dominant-baseline="central"
         id="svg_5"
         text-anchor="middle"
         x="297.98401"
         y="295">pdfequips</text>
   </g>
</svg>